<?xml version="1.0" encoding="UTF-8"?>
<svg id="_Слой_2" data-name="Слой_2" xmlns="http://www.w3.org/2000/svg" viewBox="0 0 86.1 53.3">
  <defs>
    <style>
      .cls-1 {
        font-family: NTSomic-Medium, 'NT Somic';
        font-size: 2.78px;
        font-variation-settings: 'wght' 600;
        font-weight: 500;
      }

      .cls-1, .cls-2 {
        fill: #fff;
      }

      .cls-3 {
        letter-spacing: .21em;
      }

      .cls-4 {
        letter-spacing: .22em;
      }

      .cls-5 {
        letter-spacing: .25em;
      }

      .cls-6 {
        letter-spacing: .25em;
      }
    </style>
  </defs>
  <g id="_Слой_1-2" data-name="Слой_1">
    <g>
      <g>
        <path class="cls-2" d="M40.06,23.21c.62,0,1.07-.43,1.07-1.05s-.44-1.05-1.07-1.05-1.07.43-1.07,1.05.44,1.05,1.07,1.05ZM40.06,21.25c.55,0,.9.37.9.91s-.35.91-.9.91-.9-.37-.9-.91.34-.91.9-.91Z"/>
        <g>
          <path class="cls-2" d="M36.26,19.81s.05.02.08.03c.14.06.28.11.43.15.41.13.83.21,1.27.23h0c.14.01.28.01.42.01.44-.01.88-.09,1.31-.25.13-.05.25-.1.38-.17.49-.25.95-.63,1.35-1.17.1-.13.19-.27.28-.41.02-.04.04-.07.07-.11.36-.63.71-1.27,1.04-1.93.88-1.77,1.73-3.55,2.62-5.31l.18-.36s.05-.09.08-.14h0c.3-.57.65-1.1,1.12-1.51h0c.16-.14.33-.26.52-.37.07-.04.13-.07.2-.1h0c.47-.2.94-.16,1.3.09.1.06.18.14.27.23.16.2.29.45.37.75.02.09.04.18.05.27.02.13.03.25.03.38,0,.44-.12.86-.32,1.26-.05.1-.11.19-.16.29-.02.03-.04.06-.06.09-.38.56-.9.94-1.46,1.25-.13.07-.26.14-.39.21h0c-.06.04-.12.07-.18.09-.42.21-.85.4-1.3.61h-.02s-.01.01-.02.02c-.08.04-.16.07-.25.11.24.14.42.24.61.35.05.03.09.05.14.08s.08.05.13.08c.45.29.86.62,1.21.99.08.08.16.18.24.27h0c.36.42.67.88.91,1.36.07.15.14.29.2.44.21.5.35,1.03.43,1.57.03.18.05.36.06.54.01.14.01.28.01.42,0,.39-.04.78-.11,1.17-.04.19-.08.38-.13.56-.13.5-.33.99-.58,1.46-.09.18-.2.35-.3.52-.19.28-.39.55-.62.81,0,.01-.02.02-.02.03-.11.13-.23.25-.35.36-.06.06-.12.11-.18.16-.09.09-.19.17-.28.25-.41.34-.84.63-1.3.84-.19.09-.38.16-.57.23-.47.16-.97.24-1.49.25-.2,0-.4,0-.6-.02-.33-.03-.66-.09-1-.18-.16-.05-.32-.09-.47-.15-.1-.04-.2-.07-.29-.11-.09-.04-.18-.08-.27-.12-.47-.22-.9-.5-1.28-.84-.16-.13-.3-.27-.44-.42-.28-.29-.53-.6-.76-.94-.07-.1-.13-.2-.19-.3-.11-.16-.2-.33-.29-.5-.05-.09-.09-.17-.14-.26-.02-.06-.06-.12-.11-.17l-1.1,1.1s.04.06.12.17c.12.2.26.38.41.56.13.16.28.32.42.47.02.02.04.04.06.06h0c.46.49,1.07,1.05,1.82,1.53.03.02.06.04.08.05.13.08.27.16.41.24,4.99,2.88,9.17-1.68,9.56-2.13.02-.02.03-.04.03-.04.36-.4.67-.84.91-1.33.1-.19.19-.39.27-.59.19-.49.34-1.02.42-1.59.01-.06.02-.12.03-.19.02-.15.04-.29.05-.43.05-.57.02-1.12-.06-1.64-.03-.2-.07-.39-.12-.58-.14-.56-.36-1.09-.66-1.58-.09-.16-.2-.32-.31-.47-.33-.46-.72-.89-1.17-1.29h0c-.11-.1-.21-.19-.32-.28-.03-.02-.06-.05-.09-.07-.32-.26-.67-.46-1.04-.72.04-.01.08-.03.12-.04h0c.14-.05.25-.08.36-.12.02,0,.05-.01.06-.02.7-.24,1.34-.57,1.92-1.03h0c.16-.12.31-.25.46-.39,0,0,0,0,0,0h0c.42-.41.7-.89.83-1.37.04-.16.07-.31.08-.47.04-.43-.03-.85-.22-1.23-.06-.13-.14-.25-.23-.37-.19-.25-.45-.47-.76-.64-.07-.04-.14-.07-.22-.11-.14-.06-.27-.12-.41-.16-.42-.15-.84-.23-1.27-.24-.14-.01-.29,0-.43,0-.47.03-.92.14-1.35.33-.13.06-.26.12-.39.19-.55.31-1.03.76-1.4,1.34,0,0,0,0,0,0h0s-.04.06-.06.09c-.07.12-.14.24-.21.36,0,0,0,0,0,0-.84,1.45-1.53,3-2.32,4.5-.46.89-.93,1.78-1.41,2.66,0,0,0,0,0,0h0c-.12.22-.24.44-.36.66h0c-.1.18-.2.35-.3.53-.19.32-.42.61-.71.83-.2.15-.41.28-.65.37-.03.01-.06.02-.08.04-.45.15-.87.09-1.21-.14-.1-.07-.19-.15-.26-.25-.11-.12-.19-.27-.26-.44-.08-.19-.13-.38-.15-.57-.02-.13-.02-.26-.02-.39.01-.37.11-.74.26-1.1.02-.05.05-.11.07-.15h0c.07-.14.14-.26.22-.38.39-.56.94-.95,1.54-1.26h0s.04-.02.05-.03c.12-.06.23-.12.35-.18h0c.46-.23.93-.46,1.42-.69.01,0,.02-.01.04-.01h0c.08-.04.15-.07.22-.11-.15-.09-.29-.17-.42-.25-.11-.06-.21-.12-.32-.19-.04-.02-.08-.05-.12-.07h0s0,0,0,0c-.46-.29-.87-.62-1.22-.99-.08-.08-.17-.18-.25-.27-.36-.41-.67-.87-.91-1.36-.07-.14-.14-.29-.2-.43-.2-.49-.34-1.01-.42-1.56-.02-.18-.05-.36-.06-.54-.04-.53-.02-1.07.06-1.63,0-.04.01-.08.02-.12.02-.15.05-.31.09-.46.12-.51.32-1.01.58-1.47.09-.18.2-.35.31-.51.16-.25.35-.48.54-.7.07-.08.14-.15.21-.23.08-.08.16-.16.25-.25.15-.14.3-.27.46-.4.2-.16.41-.31.63-.45h0c.22-.13.44-.25.67-.36.19-.09.38-.16.57-.23.48-.16.98-.26,1.48-.27h.06c.19,0,.36,0,.54.02.18.01.35.03.52.06.33.05.65.13.96.23.19.07.38.14.56.22.46.22.89.49,1.29.83h0c.15.13.3.27.44.42.05.05.09.1.13.15.15.16.29.34.43.52.14.18.27.37.39.57.1.16.2.33.29.5.04.06.07.13.11.19.04.08.1.19.16.27l1.1-1.1s-.04-.07-.13-.2c-.04-.05-.07-.1-.11-.15-.1-.14-.21-.28-.32-.42-.07-.08-.14-.16-.21-.23t0,0c-.22-.25-.5-.54-.82-.82-5.29-4.85-9.68-1.03-11.13.55-.06.06-.11.12-.16.17-.07.08-.12.14-.17.2-.09.12-.15.19-.18.22,0,0,0,.01,0,.01-.27.37-.39.63-.39.63-.09.14-.18.29-.25.44-.1.19-.19.38-.27.58-.21.5-.36,1.04-.44,1.58-.03.21-.05.42-.07.63h0c-.04.55,0,1.11.09,1.66h0s0,0,0,0c0,0,0,0,0,.01.03.2.08.39.13.57h0c.15.57.36,1.09.63,1.56h0c.09.16.19.32.29.47h0c.33.48.71.91,1.16,1.29.11.1.22.19.34.28.25.19.51.38.78.55.11.07.22.14.4.26-.04.01-.08.02-.12.04-.15.04-.3.09-.45.14-.71.25-1.36.57-1.93,1.02-.16.13-.3.26-.45.4h0s-.01.01-.01.01c-.41.4-.72.85-.86,1.37-.05.15-.07.31-.08.47,0,.07-.01.15-.01.22,0,.1,0,.2.02.3.03.26.09.5.19.72.06.14.13.26.22.38.22.31.54.54.93.7Z"/>
          <path class="cls-2" d="M40.02,22.66c-.14-.03-.15-.08-.15-.21v-.27h.11l.38.49h.27v-.02l-.46-.48c.2-.03.32-.12.32-.29,0-.24-.17-.31-.46-.31h-.49v.02c.12.04.13.08.13.25v.61c0,.13-.01.18-.13.21v.02h.48v-.02ZM39.85,21.67h.16c.16,0,.27.06.27.21s-.12.23-.27.23h-.16v-.44Z"/>
        </g>
      </g>
      <text class="cls-1" transform="translate(26.67 52.66)"><tspan class="cls-5" x="0" y="0">SWEET &amp; </tspan><tspan class="cls-3" x="18.54" y="0">L</tspan><tspan class="cls-5" x="20.7" y="0">UXU</tspan><tspan class="cls-4" x="28.58" y="0">R</tspan><tspan class="cls-6" x="31" y="0">Y</tspan></text>
      <g>
        <path class="cls-2" d="M59.42,37.34c-.34-.35-.76-.63-1.26-.85-.5-.22-1.09-.32-1.77-.32s-1.27.11-1.77.32c-.5.22-.92.5-1.26.85-.34.35-.59.75-.76,1.19-.17.45-.25.91-.25,1.38s.09.92.26,1.37c.17.45.43.85.76,1.2.34.35.76.64,1.26.85.5.22,1.09.32,1.76.32s1.25-.11,1.76-.32.92-.5,1.26-.85c.34-.35.59-.75.76-1.2.17-.45.26-.9.26-1.37s-.08-.93-.25-1.38c-.17-.45-.42-.85-.76-1.19ZM58.84,40.79c-.11.29-.27.54-.49.77-.22.23-.49.41-.82.55-.33.14-.71.21-1.15.21s-.82-.07-1.15-.21c-.33-.14-.6-.32-.82-.55-.22-.23-.38-.48-.49-.77-.11-.29-.16-.58-.16-.88s.05-.6.16-.89c.11-.29.27-.55.49-.77.22-.23.49-.41.82-.54s.71-.2,1.15-.2.82.07,1.15.2.6.32.82.54.38.48.49.77c.11.29.16.59.16.89s-.05.59-.16.88Z"/>
        <path class="cls-2" d="M71.37,41.41c-.14.18-.31.34-.52.47s-.44.24-.7.32c-.26.08-.55.12-.87.12-.44,0-.82-.07-1.15-.21-.33-.14-.6-.32-.82-.55-.22-.23-.38-.48-.49-.77-.11-.29-.16-.58-.16-.88s.05-.6.16-.89c.11-.29.27-.55.49-.77s.49-.41.82-.54.71-.2,1.15-.2c.32,0,.61.04.86.11.25.07.48.17.69.3.2.13.38.28.52.45s.26.36.34.56h1.49c-.09-.37-.25-.72-.46-1.06-.21-.33-.48-.63-.81-.88-.32-.25-.71-.45-1.15-.59-.44-.15-.94-.22-1.49-.22-.68,0-1.27.11-1.77.32-.5.22-.92.5-1.26.85-.34.35-.59.75-.76,1.19-.17.45-.25.91-.25,1.38s.09.92.26,1.37c.17.45.43.85.76,1.2.34.35.76.64,1.26.85.5.22,1.09.32,1.76.32.56,0,1.06-.08,1.5-.23.44-.15.82-.36,1.15-.61.33-.26.6-.56.81-.9.21-.34.37-.7.46-1.08h-1.49c-.09.2-.2.4-.34.58Z"/>
        <path class="cls-2" d="M85.85,38.53c-.17-.45-.42-.85-.76-1.19-.34-.35-.76-.63-1.26-.85-.5-.22-1.09-.32-1.77-.32s-1.27.11-1.77.32c-.5.22-.92.5-1.26.85-.34.35-.59.75-.76,1.19-.17.45-.25.91-.25,1.38s.09.92.26,1.37c.17.45.43.85.76,1.2.34.35.76.64,1.26.85.5.22,1.09.32,1.76.32s1.25-.11,1.76-.32.92-.5,1.26-.85c.34-.35.59-.75.76-1.2.17-.45.26-.9.26-1.37s-.08-.93-.25-1.38ZM84.52,40.79c-.11.29-.27.54-.49.77-.22.23-.49.41-.82.55-.33.14-.71.21-1.15.21s-.82-.07-1.15-.21c-.33-.14-.6-.32-.82-.55-.22-.23-.38-.48-.49-.77-.11-.29-.16-.58-.16-.88s.05-.6.16-.89c.11-.29.27-.55.49-.77.22-.23.49-.41.82-.54s.71-.2,1.15-.2.82.07,1.15.2.6.32.82.54.38.48.49.77c.11.29.16.59.16.89s-.05.59-.16.88Z"/>
        <path class="cls-2" d="M7.89,39.67c.15-.17.27-.37.35-.58.08-.22.13-.46.13-.72,0-.31-.06-.59-.18-.84-.12-.25-.29-.47-.5-.65-.21-.18-.46-.32-.74-.41-.28-.1-.59-.15-.92-.15H0v.04c.45.17.52.41.52,1.13v4.83c0,.72-.07.95-.52,1.13v.04h6.27c.37,0,.71-.05,1-.15.3-.1.55-.25.76-.44.21-.19.37-.41.48-.68.11-.26.17-.55.17-.88,0-.36-.07-.68-.2-.97-.13-.28-.33-.52-.58-.71ZM1.94,37.55h4.1c.26,0,.48.08.65.23.17.15.26.35.26.59s-.09.44-.26.59c-.17.15-.39.23-.65.23H1.94v-1.64ZM6.99,42.01c-.18.17-.42.25-.73.25H1.94v-1.84h4.33c.31,0,.55.08.73.25.18.17.27.39.27.66,0,.29-.09.51-.27.68Z"/>
        <path class="cls-2" d="M17.33,36.32h-.52v.04c.15.06.26.13.34.22l-4.2,6.91h1.61l1.24-2.05h4.63l1.24,2.05h1.61l-4.36-7.17h-1.6ZM16.57,40.21l1.56-2.57,1.56,2.57h-3.12Z"/>
        <path class="cls-2" d="M34.74,39.65c.31-.34.46-.77.46-1.28,0-.31-.06-.59-.18-.84-.12-.25-.29-.47-.5-.65-.21-.18-.46-.32-.74-.41-.28-.1-.59-.15-.92-.15h-5.28v.04c.45.17.52.41.52,1.13v4.83c0,.72-.07.95-.52,1.13v.04h2.46v-.04c-.45-.17-.52-.41-.52-1.13v-1.9h2.47l1.87,3.07h1.6l-1.92-3.16c.49-.12.89-.34,1.19-.69ZM32.87,39.19h-3.34v-1.64h3.34c.26,0,.48.08.65.23.17.15.26.35.26.59s-.09.44-.26.59c-.17.15-.39.23-.65.23Z"/>
        <path class="cls-2" d="M47.24,39.65c.31-.34.46-.77.46-1.28,0-.31-.06-.59-.18-.84-.12-.25-.29-.47-.5-.65-.21-.18-.46-.32-.74-.41-.28-.1-.59-.15-.92-.15h-5.28v.04c.45.17.52.41.52,1.13v4.83c0,.72-.07.95-.52,1.13v.04h2.46v-.04c-.45-.17-.52-.41-.52-1.13v-1.9h2.47l1.87,3.07h1.6l-1.92-3.16c.49-.12.89-.34,1.19-.69ZM45.37,39.19h-3.34v-1.64h3.34c.26,0,.48.08.65.23.17.15.26.35.26.59s-.09.44-.26.59c-.17.15-.39.23-.65.23Z"/>
      </g>
    </g>
  </g>
</svg>