<svg width="341" height="31" viewBox="0 0 341 31" fill="none" xmlns="http://www.w3.org/2000/svg">
<g clip-path="url(#clip0_9_5)">
<path d="M235.315 5.32338C233.977 3.92746 232.31 2.79585 230.324 1.93269C228.339 1.06953 226.003 0.640015 223.324 0.640015C220.646 0.640015 218.313 1.07366 216.324 1.93269C214.334 2.79585 212.671 3.92746 211.334 5.32338C209.996 6.71931 208.993 8.3176 208.329 10.11C207.664 11.9065 207.334 13.7485 207.334 15.6359C207.334 17.5233 207.672 19.3281 208.349 21.1205C209.026 22.917 210.033 24.5194 211.374 25.9277C212.712 27.3402 214.379 28.4759 216.365 29.3391C218.35 30.2022 220.67 30.6318 223.32 30.6318C225.97 30.6318 228.29 30.1981 230.276 29.3391C232.265 28.4759 233.929 27.3402 235.266 25.9277C236.603 24.5153 237.614 22.9129 238.291 21.1205C238.968 19.3281 239.306 17.4985 239.306 15.6359C239.306 13.7733 238.976 11.9024 238.311 10.11C237.647 8.3176 236.648 6.71931 235.307 5.32338H235.315ZM233.044 19.1753C232.612 20.3275 231.963 21.3517 231.099 22.2562C230.235 23.1607 229.154 23.8917 227.858 24.4533C226.561 25.015 225.049 25.2959 223.32 25.2959C221.591 25.2959 220.079 25.015 218.782 24.4533C217.486 23.8917 216.405 23.1607 215.541 22.2562C214.677 21.3517 214.028 20.3234 213.596 19.1753C213.164 18.023 212.948 16.846 212.948 15.64C212.948 14.4341 213.164 13.2488 213.596 12.0841C214.028 10.9195 214.677 9.88699 215.541 8.98253C216.405 8.07807 217.486 7.35119 218.782 6.80604C220.079 6.25676 221.591 5.98418 223.32 5.98418C225.049 5.98418 226.561 6.25676 227.858 6.80604C229.154 7.35532 230.235 8.07807 231.099 8.98253C231.963 9.88699 232.612 10.9195 233.044 12.0841C233.476 13.2488 233.692 14.4341 233.692 15.64C233.692 16.846 233.476 18.023 233.044 19.1753Z" fill="white"/>
<path d="M282.657 21.6615C282.095 22.3884 281.41 23.0161 280.603 23.553C279.795 24.0899 278.874 24.5112 277.838 24.8251C276.803 25.1389 275.649 25.2959 274.381 25.2959C272.652 25.2959 271.14 25.015 269.843 24.4534C268.547 23.8917 267.466 23.1607 266.602 22.2562C265.738 21.3518 265.09 20.3234 264.657 19.1753C264.225 18.023 264.009 16.846 264.009 15.64C264.009 14.4341 264.225 13.2488 264.657 12.0841C265.09 10.9195 265.738 9.88701 266.602 8.98255C267.466 8.07809 268.547 7.35121 269.843 6.80606C271.14 6.25678 272.652 5.9842 274.381 5.9842C275.649 5.9842 276.787 6.12875 277.794 6.41784C278.801 6.70694 279.71 7.10342 280.517 7.6114C281.324 8.11939 282.009 8.72236 282.572 9.42032C283.135 10.1183 283.587 10.8658 283.934 11.6588H289.853C289.478 10.1802 288.867 8.76779 288.019 7.42555C287.171 6.08332 286.103 4.91041 284.822 3.91096C283.542 2.91151 282.03 2.11856 280.285 1.52798C278.54 0.937392 276.575 0.644165 274.385 0.644165C271.707 0.644165 269.374 1.07781 267.385 1.93684C265.395 2.8 263.732 3.93161 262.395 5.32754C261.053 6.72346 260.054 8.32175 259.39 10.1142C258.725 11.9107 258.395 13.7526 258.395 15.64C258.395 17.5274 258.733 19.3322 259.41 21.1246C260.087 22.9211 261.094 24.5236 262.435 25.9319C263.777 27.3443 265.44 28.4801 267.426 29.3432C269.415 30.2064 271.731 30.6359 274.381 30.6359C276.599 30.6359 278.58 30.3344 280.321 29.7314C282.062 29.1285 283.583 28.3066 284.879 27.2659C286.176 26.2251 287.248 25.0192 288.1 23.648C288.948 22.2769 289.56 20.8397 289.935 19.3322H284.015C283.669 20.1541 283.216 20.9264 282.653 21.6533L282.657 21.6615Z" fill="white"/>
<path d="M340.005 10.1142C339.341 8.32175 338.342 6.72346 337 5.32754C335.663 3.93161 333.996 2.8 332.01 1.93684C330.024 1.07368 327.688 0.644165 325.01 0.644165C322.331 0.644165 319.999 1.07781 318.009 1.93684C316.02 2.8 314.356 3.93161 313.019 5.32754C311.682 6.72346 310.679 8.32175 310.014 10.1142C309.35 11.9107 309.02 13.7526 309.02 15.64C309.02 17.5274 309.358 19.3322 310.035 21.1246C310.712 22.9211 311.719 24.5236 313.06 25.9319C314.397 27.3443 316.065 28.4801 318.05 29.3432C320.036 30.2064 322.356 30.6359 325.006 30.6359C327.656 30.6359 329.976 30.2023 331.961 29.3432C333.951 28.4801 335.614 27.3443 336.951 25.9319C338.289 24.5194 339.3 22.917 339.977 21.1246C340.653 19.3322 340.992 17.5026 340.992 15.64C340.992 13.7774 340.661 11.9066 339.997 10.1142H340.005ZM334.733 19.1753C334.301 20.3275 333.653 21.3518 332.789 22.2562C331.924 23.1607 330.844 23.8917 329.547 24.4534C328.251 25.015 326.738 25.2959 325.01 25.2959C323.281 25.2959 321.768 25.015 320.472 24.4534C319.175 23.8917 318.095 23.1607 317.231 22.2562C316.366 21.3518 315.718 20.3234 315.286 19.1753C314.854 18.023 314.638 16.846 314.638 15.64C314.638 14.4341 314.854 13.2488 315.286 12.0841C315.718 10.9195 316.366 9.88701 317.231 8.98255C318.095 8.07809 319.175 7.35121 320.472 6.80606C321.768 6.25678 323.281 5.9842 325.01 5.9842C326.738 5.9842 328.251 6.25678 329.547 6.80606C330.844 7.35534 331.924 8.07809 332.789 8.98255C333.653 9.88701 334.301 10.9195 334.733 12.0841C335.166 13.2488 335.382 14.4341 335.382 15.64C335.382 16.846 335.166 18.023 334.733 19.1753Z" fill="white"/>
<path d="M31.2669 14.6942C31.8703 14.0087 32.3391 13.2281 32.6734 12.3526C33.0037 11.477 33.1708 10.5189 33.1708 9.47398C33.1708 8.23913 32.9344 7.11991 32.4574 6.10394C31.9803 5.0921 31.328 4.22894 30.4922 3.51446C29.6564 2.8041 28.6779 2.24656 27.5527 1.85008C26.4274 1.45361 25.2206 1.25537 23.9241 1.25537H0V1.43296C1.76944 2.13092 2.05483 3.08081 2.05483 5.95939V25.3206C2.05483 28.1992 1.76944 29.1491 0 29.8471V30.0246H24.8251C26.2929 30.0246 27.6179 29.8181 28.8003 29.4093C29.9826 29.0004 30.9815 28.4181 31.805 27.6623C32.6245 26.9107 33.2605 26.0062 33.7049 24.9489C34.1493 23.8958 34.3736 22.7229 34.3736 21.4343C34.3736 19.9806 34.1086 18.6879 33.5745 17.5522C33.0404 16.4164 32.2698 15.4624 31.2628 14.6942H31.2669ZM7.673 6.18654H23.92C24.9556 6.18654 25.8199 6.48803 26.513 7.091C27.2061 7.69397 27.5486 8.48692 27.5486 9.47398C27.5486 10.461 27.202 11.254 26.513 11.857C25.8199 12.4599 24.9556 12.7614 23.92 12.7614H7.673V6.18654ZM27.6994 24.0858C26.9941 24.759 26.036 25.0935 24.8251 25.0935H7.673V17.6967H24.8292C26.0401 17.6967 26.9982 18.0313 27.7035 18.7044C28.4089 19.3776 28.7636 20.2573 28.7636 21.3559C28.7636 22.5081 28.4089 23.4167 27.7035 24.0899L27.6994 24.0858Z" fill="white"/>
<path d="M68.6493 1.25537H66.5945V1.43296C67.2061 1.67663 67.6382 1.9492 67.944 2.3209L51.3015 30.0246H57.6984L62.6235 21.806H80.9457L85.8708 30.0246H92.2677L74.981 1.25537H68.6493ZM65.6038 16.8749L71.7846 6.55823L77.9654 16.8749H65.6079H65.6038Z" fill="white"/>
<path d="M137.6 14.6116C138.823 13.2405 139.435 11.5307 139.435 9.47398C139.435 8.23913 139.199 7.11991 138.722 6.10394C138.249 5.0921 137.592 4.22894 136.756 3.51446C135.921 2.8041 134.942 2.24656 133.817 1.85008C132.692 1.45361 131.485 1.25537 130.188 1.25537H109.293V1.43296C111.063 2.13092 111.348 3.08081 111.348 5.95939V25.3206C111.348 28.1992 111.063 29.1491 109.293 29.8471V30.0246H119.021V29.8471C117.252 29.1491 116.966 28.1992 116.966 25.3206V17.6926H126.731L134.119 30.0205H140.471L132.867 17.3622C134.795 16.8955 136.373 15.9787 137.6 14.6075V14.6116ZM130.188 12.7656H116.966V6.19067H130.188C131.224 6.19067 132.088 6.49216 132.781 7.09513C133.474 7.6981 133.817 8.49105 133.817 9.47811C133.817 10.4652 133.47 11.2581 132.781 11.8611C132.088 12.4641 131.224 12.7656 130.188 12.7656Z" fill="white"/>
<path d="M187.104 14.6116C188.327 13.2405 188.938 11.5307 188.938 9.47398C188.938 8.23913 188.702 7.11991 188.225 6.10394C187.752 5.0921 187.096 4.22894 186.26 3.51446C185.424 2.8041 184.446 2.24656 183.32 1.85008C182.195 1.45361 180.988 1.25537 179.692 1.25537H158.797V1.43296C160.566 2.13092 160.852 3.08081 160.852 5.95939V25.3206C160.852 28.1992 160.566 29.1491 158.797 29.8471V30.0246H168.525V29.8471C166.755 29.1491 166.47 28.1992 166.47 25.3206V17.6926H176.234L183.622 30.0205H189.974L182.37 17.3622C184.299 16.8955 185.877 15.9787 187.104 14.6075V14.6116ZM179.696 12.7656H166.474V6.19067H179.696C180.731 6.19067 181.596 6.49216 182.289 7.09513C182.982 7.6981 183.324 8.49105 183.324 9.47811C183.324 10.4652 182.978 11.2581 182.289 11.8611C181.596 12.4641 180.731 12.7656 179.696 12.7656Z" fill="white"/>
</g>
<defs>
<clipPath id="clip0_9_5">
<rect width="341" height="30" fill="white" transform="translate(0 0.640015)"/>
</clipPath>
</defs>
</svg>
