<svg width="41" height="71" viewBox="0 0 41 71" fill="none" xmlns="http://www.w3.org/2000/svg">
<path d="M12.94 58.28C14.5 58.28 15.62 57.2 15.62 55.64C15.62 54.08 14.5 53 12.94 53C11.38 53 10.26 54.08 10.26 55.64C10.26 57.2 11.38 58.28 12.94 58.28ZM12.94 53.35C14.33 53.35 15.21 54.28 15.21 55.64C15.21 57 14.33 57.93 12.94 57.93C11.55 57.93 10.67 57 10.67 55.64C10.67 54.28 11.53 53.35 12.94 53.35Z" fill="#FF4C24"/>
<path d="M31.5 35.16C31.85 35.05 32.13 34.95 32.42 34.85C32.47 34.83 32.53 34.81 32.58 34.79C34.33 34.18 35.95 33.35 37.41 32.21C37.81 31.9 38.18 31.58 38.55 31.22C38.55 31.22 38.55 31.2 38.57 31.2C39.63 30.17 40.32 28.97 40.66 27.76C40.77 27.36 40.84 26.98 40.86 26.58C40.96 25.5 40.77 24.44 40.31 23.49C40.15 23.16 39.96 22.86 39.74 22.57C39.26 21.94 38.62 21.38 37.83 20.96C37.64 20.86 37.47 20.78 37.28 20.69C36.94 20.53 36.6 20.39 36.25 20.28C35.2 19.91 34.13 19.71 33.06 19.68C32.71 19.65 32.34 19.66 31.99 19.68C30.81 19.76 29.67 20.03 28.59 20.51C28.27 20.65 27.94 20.81 27.62 20.99C26.25 21.77 25.03 22.89 24.1 24.34C24.05 24.42 24 24.49 23.96 24.56C23.78 24.86 23.6 25.16 23.43 25.46C21.31 29.1 19.58 33 17.61 36.76C16.45 39 15.28 41.23 14.08 43.44C13.78 44 13.48 44.54 13.17 45.09V45.11C12.92 45.55 12.66 45.98 12.41 46.41C11.94 47.22 11.35 47.93 10.61 48.5C10.12 48.89 9.58001 49.2 8.98001 49.43C8.91001 49.47 8.84001 49.49 8.77001 49.52C7.65001 49.91 6.58001 49.76 5.74001 49.17C5.49001 49 5.27001 48.8 5.08001 48.55C4.82001 48.24 4.60001 47.87 4.43001 47.44C4.24001 46.96 4.11001 46.48 4.05001 46.01C4.01001 45.68 4.00001 45.36 4.01001 45.03C4.05001 44.1 4.28001 43.17 4.67001 42.26C4.72001 42.13 4.78001 42 4.85001 41.87C5.02001 41.53 5.21001 41.21 5.41001 40.92C6.39001 39.5 7.78001 38.54 9.28001 37.75C9.28001 37.75 9.37001 37.7 9.40001 37.68C9.70001 37.52 9.99001 37.37 10.29 37.23H10.31C11.47 36.64 12.65 36.09 13.86 35.5C13.89 35.48 13.92 35.47 13.95 35.46H13.97C14.16 35.36 14.34 35.28 14.53 35.18C14.14 34.95 13.81 34.75 13.47 34.56C13.2 34.41 12.93 34.26 12.67 34.09C12.56 34.03 12.47 33.96 12.36 33.9H12.34C11.2 33.16 10.17 32.33 9.27001 31.41C9.06001 31.2 8.85001 30.97 8.65001 30.74C7.73001 29.7 6.97001 28.57 6.36001 27.33C6.17001 26.97 6.01001 26.61 5.87001 26.24C5.36001 25.01 5.01001 23.7 4.80001 22.33C4.74001 21.89 4.69001 21.43 4.66001 20.98C4.56001 19.66 4.61001 18.3 4.81001 16.9C4.81001 16.8 4.84001 16.7 4.85001 16.59C4.90001 16.2 4.98001 15.82 5.08001 15.43C5.39001 14.15 5.89001 12.9 6.54001 11.74C6.77001 11.3 7.03001 10.87 7.31001 10.46C7.72001 9.83998 8.18001 9.24998 8.67001 8.68998C8.85001 8.49998 9.02001 8.29998 9.21001 8.10998C9.41001 7.89998 9.62001 7.69998 9.83001 7.48998C10.2 7.13998 10.59 6.80998 10.98 6.48998C11.49 6.08998 12.02 5.71998 12.56 5.36998C13.1 5.03998 13.67 4.73998 14.24 4.46998C14.71 4.24998 15.18 4.05998 15.67 3.89998C16.88 3.48998 18.14 3.24998 19.39 3.22998H19.55C20.02 3.22998 20.47 3.24998 20.9 3.27998C21.34 3.31998 21.78 3.35998 22.2 3.42998C23.04 3.55998 23.84 3.75998 24.6 4.00998C25.08 4.17998 25.55 4.35998 26.01 4.56998C27.17 5.11998 28.25 5.80998 29.24 6.65998C29.62 6.98998 29.99 7.34998 30.35 7.70998C30.46 7.82998 30.58 7.95998 30.69 8.07998C31.07 8.48998 31.43 8.92998 31.76 9.37998C32.1 9.82998 32.43 10.3 32.75 10.81C33.01 11.21 33.24 11.64 33.49 12.08C33.58 12.24 33.67 12.4 33.75 12.56C33.86 12.77 34.01 13.04 34.16 13.24L36.93 10.47C36.93 10.47 36.82 10.29 36.61 9.96998C36.52 9.84998 36.44 9.71998 36.35 9.59998C36.1 9.23998 35.83 8.88998 35.56 8.54998C35.39 8.34998 35.22 8.14998 35.04 7.96998C35.04 7.96998 35.0333 7.96332 35.02 7.94998C34.46 7.31998 33.77 6.59998 32.95 5.89998C19.71 -6.21002 8.69001 3.36998 5.07001 7.34998C4.92001 7.49998 4.79001 7.64998 4.67001 7.77998C4.50001 7.96998 4.36001 8.13998 4.24001 8.28998C4.00001 8.57998 3.85001 8.76998 3.80001 8.83998C3.80001 8.85998 3.78001 8.86998 3.78001 8.86998C3.10001 9.80998 2.80001 10.46 2.80001 10.46C2.57001 10.82 2.36001 11.18 2.17001 11.56C1.92001 12.03 1.69001 12.52 1.49001 13.01C0.960006 14.28 0.580005 15.61 0.370005 16.99C0.290006 17.51 0.240005 18.04 0.200006 18.57C0.100006 19.95 0.180005 21.36 0.440005 22.75H0.460005C0.460005 22.75 0.460005 22.77 0.460005 22.78C0.550005 23.27 0.650005 23.76 0.780005 24.21C1.16001 25.64 1.69001 26.94 2.37001 28.13C2.60001 28.53 2.84001 28.92 3.10001 29.3C3.92001 30.51 4.90001 31.58 6.02001 32.55C6.29001 32.8 6.58001 33.03 6.87001 33.25C7.49001 33.73 8.15001 34.2 8.84001 34.62C9.12001 34.8 9.39001 34.98 9.84001 35.26C9.74001 35.29 9.65001 35.31 9.55001 35.35C9.17001 35.46 8.80001 35.58 8.43001 35.7C6.63001 36.32 5.01001 37.14 3.57001 38.27C3.17001 38.59 2.80001 38.91 2.43001 39.26C2.43001 39.26 2.40001 39.29 2.39001 39.3C1.37001 40.3 0.590006 41.43 0.230006 42.73C0.120006 43.11 0.0400055 43.5 0.0200055 43.91C5.49294e-06 44.1 -0.00999451 44.28 -0.00999451 44.46C-0.00999451 44.71 0.0100055 44.95 0.0300055 45.22C0.110005 45.88 0.270005 46.49 0.510005 47.02C0.660005 47.36 0.840005 47.68 1.06001 47.97C1.62001 48.74 2.41001 49.33 3.38001 49.73C3.44001 49.76 3.51001 49.78 3.58001 49.8C3.93001 49.94 4.29001 50.07 4.66001 50.18C5.68001 50.5 6.75001 50.71 7.85001 50.77C8.20001 50.81 8.55001 50.81 8.91001 50.8C10.02 50.77 11.12 50.57 12.19 50.17C12.51 50.05 12.82 49.91 13.14 49.75C14.37 49.12 15.53 48.16 16.54 46.8C16.79 46.48 17.02 46.13 17.24 45.77C17.29 45.67 17.35 45.58 17.41 45.49C18.33 43.91 19.19 42.3 20.01 40.65C22.21 36.22 24.35 31.74 26.58 27.32L27.04 26.42C27.1 26.3 27.16 26.18 27.23 26.06V26.04C27.98 24.63 28.87 23.3 30.05 22.27C30.45 21.92 30.89 21.61 31.35 21.34C31.52 21.24 31.68 21.15 31.86 21.08C33.05 20.57 34.23 20.68 35.13 21.31C35.38 21.47 35.59 21.66 35.8 21.9C36.21 22.39 36.54 23.02 36.72 23.77C36.77 23.99 36.81 24.22 36.84 24.44C36.89 24.77 36.91 25.07 36.91 25.39C36.91 26.5 36.62 27.55 36.1 28.56C35.98 28.81 35.84 29.04 35.69 29.28C35.64 29.36 35.59 29.44 35.53 29.51C34.57 30.92 33.26 31.86 31.85 32.65C31.52 32.84 31.2 33.01 30.86 33.17C30.71 33.26 30.55 33.34 30.4 33.41C29.34 33.94 28.27 34.42 27.14 34.94H27.1C27.1 34.94 27.06 34.98 27.05 34.99C26.84 35.08 26.64 35.18 26.43 35.27C27.04 35.61 27.49 35.88 27.96 36.15C28.08 36.22 28.2 36.28 28.3 36.35C28.41 36.42 28.51 36.48 28.62 36.55C29.75 37.28 30.77 38.12 31.66 39.04C31.87 39.25 32.07 39.48 32.27 39.71C33.19 40.76 33.95 41.91 34.56 43.12C34.74 43.49 34.91 43.85 35.06 44.23C35.59 45.5 35.95 46.81 36.14 48.16C36.21 48.61 36.26 49.07 36.29 49.52C36.32 49.87 36.33 50.22 36.33 50.58C36.33 51.56 36.24 52.55 36.07 53.53C35.98 54.01 35.88 54.48 35.74 54.95C35.41 56.21 34.92 57.43 34.28 58.62C34.05 59.06 33.79 59.49 33.51 59.91C33.04 60.61 32.53 61.28 31.95 61.94C31.93 61.97 31.91 61.98 31.89 62.01C31.61 62.33 31.31 62.63 31.02 62.93C30.99 62.96 30.96 62.98 30.94 63.01C30.82 63.12 30.71 63.24 30.58 63.34C30.35 63.56 30.11 63.77 29.88 63.97C28.84 64.83 27.76 65.55 26.62 66.08C26.15 66.3 25.68 66.49 25.19 66.65C24 67.05 22.74 67.26 21.44 67.28C20.95 67.28 20.44 67.28 19.93 67.22C19.61 67.19 19.28 67.15 18.95 67.1C18.44 67.02 17.93 66.91 17.41 66.77C17.01 66.66 16.61 66.53 16.22 66.4C15.97 66.31 15.73 66.21 15.49 66.12C15.26 66.02 15.03 65.93 14.81 65.82C13.63 65.27 12.56 64.56 11.59 63.72C11.19 63.39 10.82 63.04 10.48 62.66C9.79001 61.94 9.15001 61.16 8.58001 60.29C8.41001 60.04 8.25001 59.8 8.10001 59.54C7.84001 59.14 7.60001 58.71 7.37001 58.28C7.25001 58.06 7.14001 57.85 7.03001 57.63C6.97001 57.49 6.87001 57.34 6.76001 57.21L4.00001 59.96C4.00001 59.96 4.10001 60.12 4.29001 60.38C4.60001 60.87 4.95001 61.34 5.31001 61.78C5.64001 62.19 6.01001 62.58 6.37001 62.95C6.42001 63 6.47001 63.05 6.52001 63.09C7.68001 64.32 9.21001 65.72 11.08 66.93C11.15 66.97 11.22 67.03 11.29 67.06C11.62 67.27 11.97 67.47 12.33 67.67C13 68.06 13.66 68.39 14.32 68.67C14.38 68.7 14.45 68.72 14.51 68.75C14.52 68.75 14.53 68.75 14.54 68.76C29.83 75.22 37.55 60.87 37.65 60.69C38.04 60.13 38.4 59.53 38.71 58.9C38.96 58.43 39.18 57.92 39.38 57.41C39.86 56.18 40.23 54.84 40.45 53.41C40.48 53.25 40.5 53.1 40.52 52.94C40.57 52.57 40.62 52.21 40.64 51.85C40.75 50.41 40.7 49.03 40.49 47.73C40.41 47.23 40.31 46.74 40.18 46.27C39.82 44.86 39.26 43.54 38.53 42.3C38.29 41.9 38.03 41.5 37.76 41.11C36.94 39.96 35.96 38.88 34.83 37.88C34.57 37.63 34.3 37.41 34.02 37.18C33.95 37.12 33.87 37.06 33.79 37C32.99 36.36 32.12 35.84 31.17 35.19C31.28 35.15 31.38 35.12 31.48 35.08L31.5 35.16Z" fill="#FF4C24"/>
<path d="M12.83 56.91C12.49 56.84 12.45 56.72 12.45 56.39V55.72H12.73L13.67 56.96H14.34V56.91L13.19 55.71C13.69 55.62 14 55.4 14 54.97C14 54.37 13.57 54.2 12.85 54.2H11.63V54.25C11.92 54.35 11.96 54.46 11.96 54.87V56.4C11.96 56.73 11.93 56.85 11.63 56.92V56.97H12.83V56.92V56.91ZM12.42 54.42H12.82C13.23 54.42 13.51 54.56 13.51 54.95C13.51 55.34 13.22 55.52 12.82 55.52H12.42V54.42Z" fill="#FF4C24"/>
</svg>
