<?xml version="1.0" encoding="UTF-8"?>
<svg id="_Слой_2" data-name="Слой_2" xmlns="http://www.w3.org/2000/svg" viewBox="0 0 40.9 70.5">
  <defs>
    <style>
      .cls-1 {
        fill: #ff4c24;
      }
    </style>
  </defs>
  <g id="_Слой_1-2" data-name="Слой_1">
    <g>
      <path class="cls-1" d="M12.94,58.28c1.56,0,2.68-1.08,2.68-2.64s-1.12-2.64-2.68-2.64-2.68,1.08-2.68,2.64,1.12,2.64,2.68,2.64ZM12.94,53.35c1.39,0,2.27.93,2.27,2.29s-.88,2.29-2.27,2.29-2.27-.93-2.27-2.29.86-2.29,2.27-2.29Z"/>
      <path class="cls-1" d="M31.5,35.16c.35-.11.63-.21.92-.31.05-.02.11-.04.16-.06,1.75-.61,3.37-1.44,4.83-2.58h0c.4-.31.77-.63,1.14-.99,0,0,0-.02.02-.02h0c1.06-1.03,1.75-2.23,2.09-3.44.11-.4.18-.78.2-1.18.1-1.08-.09-2.14-.55-3.09-.16-.33-.35-.63-.57-.92-.48-.63-1.12-1.19-1.91-1.61-.19-.1-.36-.18-.55-.27-.34-.16-.68-.3-1.03-.41-1.05-.37-2.12-.57-3.19-.6-.35-.03-.72-.02-1.07,0-1.18.08-2.32.35-3.4.83-.32.14-.65.3-.97.48-1.37.78-2.59,1.9-3.52,3.35,0,0,0,0,0,0h0c-.05.08-.1.15-.14.22-.18.3-.36.6-.53.9,0,0,0,0,0,0-2.12,3.64-3.85,7.54-5.82,11.3-1.16,2.24-2.33,4.47-3.53,6.68,0,0,0,0,0,0h0c-.3.56-.6,1.1-.91,1.65v.02c-.25.44-.51.87-.76,1.3-.47.81-1.06,1.52-1.8,2.09-.49.39-1.03.7-1.63.93-.07.04-.14.06-.21.09-1.12.39-2.19.24-3.03-.35-.25-.17-.47-.37-.66-.62-.26-.31-.48-.68-.65-1.11-.19-.48-.32-.96-.38-1.43-.04-.33-.05-.65-.04-.98.04-.93.27-1.86.66-2.77.05-.13.11-.26.18-.39h0c.17-.34.36-.66.56-.95.98-1.42,2.37-2.38,3.87-3.17h0s.09-.05.12-.07c.3-.16.59-.31.89-.45h.02c1.16-.59,2.34-1.14,3.55-1.73.03-.02.06-.03.09-.04h.02c.19-.1.37-.18.56-.28-.39-.23-.72-.43-1.06-.62-.27-.15-.54-.3-.8-.47-.11-.06-.2-.13-.31-.19h0s-.02,0-.02,0c-1.14-.74-2.17-1.57-3.07-2.49-.21-.21-.42-.44-.62-.67-.92-1.04-1.68-2.17-2.29-3.41-.19-.36-.35-.72-.49-1.09-.51-1.23-.86-2.54-1.07-3.91-.06-.44-.11-.9-.14-1.35-.1-1.32-.05-2.68.15-4.08,0-.1.03-.2.04-.31.05-.39.13-.77.23-1.16.31-1.28.81-2.53,1.46-3.69.23-.44.49-.87.77-1.28.41-.62.87-1.21,1.36-1.77.18-.19.35-.39.54-.58.2-.21.41-.41.62-.62.37-.35.76-.68,1.15-1,.51-.4,1.04-.77,1.58-1.12h0c.54-.33,1.11-.63,1.68-.9.47-.22.94-.41,1.43-.57,1.21-.41,2.47-.65,3.72-.67h.16c.47,0,.92.02,1.35.05.44.04.88.08,1.3.15.84.13,1.64.33,2.4.58.48.17.95.35,1.41.56,1.16.55,2.24,1.24,3.23,2.09h0c.38.33.75.69,1.11,1.05.11.12.23.25.34.37.38.41.74.85,1.07,1.3.34.45.67.92.99,1.43.26.4.49.83.74,1.27.09.16.18.32.26.48.11.21.26.48.41.68l2.77-2.77s-.11-.18-.32-.5c-.09-.12-.17-.25-.26-.37-.25-.36-.52-.71-.79-1.05-.17-.2-.34-.4-.52-.58t-.02-.02c-.56-.63-1.25-1.35-2.07-2.05C19.71-6.21,8.69,3.37,5.07,7.35c-.15.15-.28.3-.4.43-.17.19-.31.36-.43.51-.24.29-.39.48-.44.55,0,.02-.02.03-.02.03-.68.94-.98,1.59-.98,1.59-.23.36-.44.72-.63,1.1-.25.47-.48.96-.68,1.45-.53,1.27-.91,2.6-1.12,3.98-.08.52-.13,1.05-.17,1.58h0c-.1,1.38-.02,2.79.24,4.18H.46s0,0,0,0c0,0,0,.02,0,.03.09.49.19.98.32,1.43h0c.38,1.43.91,2.73,1.59,3.92h0c.23.4.47.79.73,1.17h0c.82,1.21,1.8,2.28,2.92,3.25.27.25.56.48.85.7.62.48,1.28.95,1.97,1.37.28.18.55.36,1,.64-.1.03-.19.05-.29.09-.38.11-.75.23-1.12.35-1.8.62-3.42,1.44-4.86,2.57-.4.32-.77.64-1.14.99h0s-.03.03-.04.04c-1.02,1-1.8,2.13-2.16,3.43-.11.38-.19.77-.21,1.18-.02.19-.03.37-.03.55,0,.25.02.49.04.76.08.66.24,1.27.48,1.8.15.34.33.66.55.95.56.77,1.35,1.36,2.32,1.76.06.03.13.05.2.07.35.14.71.27,1.08.38,1.02.32,2.09.53,3.19.59h0c.35.04.7.04,1.06.03,1.11-.03,2.21-.23,3.28-.63.32-.12.63-.26.95-.42,1.23-.63,2.39-1.59,3.4-2.95.25-.32.48-.67.7-1.03.05-.1.11-.19.17-.28.92-1.58,1.78-3.19,2.6-4.84,2.2-4.43,4.34-8.91,6.57-13.33l.46-.9c.06-.12.12-.24.19-.36v-.02c.75-1.41,1.64-2.74,2.82-3.77h0c.4-.35.84-.66,1.3-.93.17-.1.33-.19.51-.26h0c1.19-.51,2.37-.4,3.27.23.25.16.46.35.67.59.41.49.74,1.12.92,1.87.05.22.09.45.12.67.05.33.07.63.07.95,0,1.11-.29,2.16-.81,3.17-.12.25-.26.48-.41.72-.05.08-.1.16-.16.23-.96,1.41-2.27,2.35-3.68,3.14-.33.19-.65.36-.99.52h0c-.15.09-.31.17-.46.24-1.06.53-2.13,1.01-3.26,1.53h-.04s-.04.04-.05.05c-.21.09-.41.19-.62.28.61.34,1.06.61,1.53.88.12.07.24.13.34.2.11.07.21.13.32.2,1.13.73,2.15,1.57,3.04,2.49.21.21.41.44.61.67h0c.92,1.05,1.68,2.2,2.29,3.41.18.37.35.73.5,1.11.53,1.27.89,2.58,1.08,3.93.07.45.12.91.15,1.36.03.35.04.7.04,1.06,0,.98-.09,1.97-.26,2.95-.09.48-.19.95-.33,1.42-.33,1.26-.82,2.48-1.46,3.67-.23.44-.49.87-.77,1.29-.47.7-.98,1.37-1.56,2.03-.02.03-.04.04-.06.07-.28.32-.58.62-.87.92-.03.03-.06.05-.08.08-.12.11-.23.23-.36.33-.23.22-.47.43-.7.63-1.04.86-2.12,1.58-3.26,2.11-.47.22-.94.41-1.43.57-1.19.4-2.45.61-3.75.63-.49,0-1,0-1.51-.06-.32-.03-.65-.07-.98-.12-.51-.08-1.02-.19-1.54-.33-.4-.11-.8-.24-1.19-.37-.25-.09-.49-.19-.73-.28-.23-.1-.46-.19-.68-.3-1.18-.55-2.25-1.26-3.22-2.1-.4-.33-.77-.68-1.11-1.06-.69-.72-1.33-1.5-1.9-2.37-.17-.25-.33-.49-.48-.75-.26-.4-.5-.83-.73-1.26-.12-.22-.23-.43-.34-.65-.06-.14-.16-.29-.27-.42l-2.76,2.75s.1.16.29.42c.31.49.66.96,1.02,1.4.33.41.7.8,1.06,1.17.05.05.1.1.15.14h0c1.16,1.23,2.69,2.63,4.56,3.84.07.04.14.1.21.13.33.21.68.41,1.04.61.67.39,1.33.72,1.99,1,.06.03.13.05.19.08.01,0,.02,0,.03.01,15.29,6.46,23.01-7.89,23.11-8.07,0,0,0,0,0,0,.39-.56.75-1.16,1.06-1.79.25-.47.47-.98.67-1.49.48-1.23.85-2.57,1.07-4,.03-.16.05-.31.07-.47.05-.37.1-.73.12-1.09.11-1.44.06-2.82-.15-4.12-.08-.5-.18-.99-.31-1.46-.36-1.41-.92-2.73-1.65-3.97-.24-.4-.5-.8-.77-1.19-.82-1.15-1.8-2.23-2.93-3.23h0c-.26-.25-.53-.47-.81-.7-.07-.06-.15-.12-.23-.18-.8-.64-1.67-1.16-2.62-1.81.11-.04.21-.07.31-.11h0Z"/>
      <path class="cls-1" d="M12.83,56.91c-.34-.07-.38-.19-.38-.52v-.67h.28l.94,1.24h.67v-.05l-1.15-1.2c.5-.09.81-.31.81-.74,0-.6-.43-.77-1.15-.77h-1.22v.05c.29.1.33.21.33.62v1.53c0,.33-.03.45-.33.52v.05h1.2v-.05ZM12.42,54.42h.4c.41,0,.69.14.69.53s-.29.57-.69.57h-.4v-1.1Z"/>
    </g>
  </g>
</svg>